<svg height="480pt" viewBox="0 -72 480 480" width="480pt" xmlns="http://www.w3.org/2000/svg"><path d="m240 0c-116.113281.148438-211.378906 91.972656-215.800781 208h-24.199219v128h480v-128h-24.199219c-4.421875-116.027344-99.6875-207.851562-215.800781-208zm-198.511719 192h62.511719v-16h-59.9375c19.054688-93.066406 100.941406-159.886719 195.9375-159.886719s176.882812 66.820313 195.9375 159.886719h-59.9375v16h62.511719c.632812 5.28125 1.121093 10.609375 1.328125 16h-399.679688c.207032-5.390625.695313-10.71875 1.328125-16zm422.511719 32v96h-448v-96zm0 0"/><path d="m392.96875 155.824219 14.0625-7.648438c-50.175781-92.28125-114.589844-107.375-117.3125-107.992187l-3.4375 15.632812c.589844.128906 59.976562 14.070313 106.6875 100.007813zm0 0"/><path d="m120 176h16v16h-16zm0 0"/><path d="m152 176h16v16h-16zm0 0"/><path d="m184 176h16v16h-16zm0 0"/><path d="m216 176h16v16h-16zm0 0"/><path d="m344 176h16v16h-16zm0 0"/><path d="m312 176h16v16h-16zm0 0"/><path d="m280 176h16v16h-16zm0 0"/><path d="m248 176h16v16h-16zm0 0"/><path d="m40 240h16v64h-16zm0 0"/><path d="m72 240h16v64h-16zm0 0"/><path d="m104 240h16v64h-16zm0 0"/><path d="m136 240h16v64h-16zm0 0"/><path d="m168 240h16v64h-16zm0 0"/><path d="m200 240h16v64h-16zm0 0"/><path d="m232 240h16v64h-16zm0 0"/><path d="m264 240h16v64h-16zm0 0"/><path d="m296 240h16v64h-16zm0 0"/><path d="m328 240h16v64h-16zm0 0"/><path d="m360 240h16v64h-16zm0 0"/><path d="m392 240h16v64h-16zm0 0"/><path d="m424 240h16v64h-16zm0 0"/></svg>